<svg width="498" height="340" viewBox="0 0 498 340" fill="none" xmlns="http://www.w3.org/2000/svg">
<g clip-path="url(#clip0_7_2600)">
<path d="M446.759 331.317C435.59 339.372 421.116 339.777 407.125 338.787C405.171 338.649 403.231 338.487 401.31 338.313C401.298 338.31 401.283 338.311 401.271 338.308C401.179 338.299 401.086 338.29 400.998 338.285C400.601 338.248 400.204 338.211 399.811 338.173L399.904 338.351L400.195 338.901C400.091 338.717 399.986 338.536 399.881 338.352C399.851 338.297 399.816 338.242 399.785 338.187C396.161 331.872 392.566 325.326 391.649 318.115C390.701 310.631 393.365 302.156 399.944 298.478C400.807 297.997 401.721 297.614 402.669 297.336C403.062 297.216 403.461 297.119 403.864 297.033C406.332 296.484 408.901 296.604 411.307 297.379C413.713 298.154 415.87 299.556 417.555 301.442C419.24 303.328 420.393 305.629 420.895 308.11C421.398 310.59 421.231 313.159 420.413 315.553C425.991 309.827 424.951 300.537 423.026 292.773C421.099 285.01 418.765 276.371 422.686 269.397C424.866 265.516 428.699 263.108 433 262.138C433.132 262.109 433.264 262.081 433.396 262.056C438.522 261.017 443.85 261.951 448.317 264.673C456.542 269.863 460.766 279.701 462.138 289.339C464.347 304.849 459.458 322.157 446.759 331.317Z" fill="#F2F2F2"/>
<path d="M443.153 306.455C442.829 309.876 442.008 313.231 440.717 316.415C439.526 319.233 437.922 321.856 435.957 324.199C431.872 328.986 426.697 332.721 420.87 335.09C416.462 336.897 411.844 338.139 407.125 338.787C405.171 338.649 403.231 338.487 401.31 338.313C401.298 338.31 401.283 338.311 401.271 338.308C401.179 338.299 401.086 338.29 400.998 338.285C400.601 338.248 400.204 338.211 399.811 338.173L399.904 338.351L400.195 338.901C400.091 338.717 399.986 338.536 399.881 338.352C399.85 338.297 399.816 338.242 399.785 338.186C403.323 334.658 405.965 330.331 407.488 325.57C409.012 320.808 409.374 315.75 408.543 310.82C407.673 305.925 405.661 301.304 402.669 297.336C403.062 297.216 403.461 297.119 403.864 297.033C405.001 298.589 405.999 300.243 406.845 301.975C409.881 308.153 410.849 315.145 409.607 321.916C408.452 328.044 405.575 333.715 401.314 338.263C401.687 338.236 402.064 338.206 402.432 338.172C409.416 337.58 416.386 336.077 422.72 332.998C428.135 330.43 432.836 326.568 436.409 321.753C440.245 316.456 441.935 310.085 442.226 303.609C442.449 296.632 441.719 289.658 440.055 282.879C438.441 275.967 435.989 269.279 432.752 262.963C432.68 262.82 432.665 262.655 432.711 262.501C432.758 262.347 432.861 262.217 433 262.138C433.116 262.059 433.259 262.03 433.396 262.056C433.464 262.074 433.526 262.107 433.579 262.152C433.632 262.197 433.674 262.254 433.702 262.318C434.101 263.098 434.493 263.879 434.87 264.668C438.009 271.244 440.32 278.184 441.75 285.33C443.139 292.224 443.88 299.435 443.153 306.455Z" fill="white"/>
<path d="M20.7772 108.11C20.4447 108.109 20.1151 108.047 19.8054 107.926C19.3045 107.733 18.874 107.393 18.571 106.949C18.2681 106.506 18.1071 105.981 18.1094 105.443V77.6175C18.1083 76.6757 17.7341 75.7727 17.0689 75.1067C16.4037 74.4406 15.5018 74.066 14.561 74.0649H8.86951C6.51797 74.0623 4.2635 73.1259 2.60071 71.4611C0.937919 69.7964 0.00260497 67.5393 -3.05176e-05 65.1851V9.2397C0.00260654 6.88543 0.937919 4.62834 2.60071 2.96362C4.2635 1.2989 6.51797 0.362502 8.86951 0.359863H209.626C211.977 0.362505 214.232 1.2989 215.894 2.96362C217.557 4.62834 218.493 6.88543 218.495 9.2397V65.1851C218.493 67.5393 217.557 69.7964 215.894 71.4611C214.232 73.1258 211.977 74.0622 209.626 74.0649H54.6705C54.1786 74.0655 53.6922 74.1681 53.242 74.3664C52.7917 74.5647 52.3875 74.8543 52.0547 75.2169L22.7313 107.243C22.4837 107.516 22.182 107.734 21.8455 107.883C21.5091 108.032 21.1452 108.109 20.7772 108.11ZM8.86951 1.54311C6.83132 1.54541 4.87727 2.35704 3.43605 3.79994C1.99483 5.24283 1.18414 7.19914 1.18184 9.2397V65.1851C1.18415 67.2256 1.99483 69.1819 3.43605 70.6248C4.87727 72.0677 6.83132 72.8793 8.86951 72.8816H14.561C15.8151 72.8831 17.0175 73.3825 17.9043 74.2703C18.7911 75.1582 19.2899 76.3619 19.2913 77.6175V105.443C19.2913 105.742 19.3813 106.033 19.5495 106.279C19.7177 106.525 19.9563 106.715 20.234 106.823C20.5117 106.931 20.8155 106.953 21.1057 106.885C21.3958 106.818 21.6588 106.664 21.8602 106.444L51.1835 74.4173C51.6271 73.9339 52.166 73.5479 52.7662 73.2836C53.3664 73.0192 54.0148 72.8824 54.6705 72.8816H209.626C211.664 72.8793 213.618 72.0677 215.059 70.6248C216.5 69.1819 217.311 67.2256 217.313 65.1851V9.2397C217.311 7.19914 216.5 5.24283 215.059 3.79994C213.618 2.35704 211.664 1.54541 209.626 1.54311H8.86951Z" fill="#CCCCCC"/>
<path d="M21.756 25.5573C26.0424 25.5573 29.5172 22.0784 29.5172 17.7871C29.5172 13.4957 26.0424 10.0168 21.756 10.0168C17.4696 10.0168 13.9948 13.4957 13.9948 17.7871C13.9948 22.0784 17.4696 25.5573 21.756 25.5573Z" fill="#CCCCCC"/>
<path d="M200.571 60.7821H17.9243C17.3803 60.7828 16.8415 60.6761 16.3387 60.4681C15.8359 60.2601 15.3791 59.955 14.9942 59.5701C14.6093 59.1852 14.3039 58.7281 14.0956 58.225C13.8873 57.7219 13.78 57.1826 13.78 56.638C13.78 56.0934 13.8873 55.5541 14.0956 55.051C14.3039 54.5479 14.6093 54.0908 14.9942 53.7059C15.3791 53.3211 15.8359 53.0159 16.3387 52.8079C16.8415 52.6 17.3803 52.4932 17.9243 52.4939H200.571C201.115 52.4932 201.654 52.6 202.156 52.8079C202.659 53.0159 203.116 53.3211 203.501 53.7059C203.886 54.0908 204.191 54.5479 204.4 55.051C204.608 55.5541 204.715 56.0934 204.715 56.638C204.715 57.1826 204.608 57.7219 204.4 58.225C204.191 58.7281 203.886 59.1852 203.501 59.5701C203.116 59.955 202.659 60.2601 202.156 60.4681C201.654 60.6761 201.115 60.7828 200.571 60.7821Z" fill="#CCCCCC"/>
<path d="M141.068 43.1696H17.9243C17.3803 43.1702 16.8415 43.0635 16.3387 42.8555C15.8359 42.6476 15.3791 42.3424 14.9942 41.9575C14.6093 41.5727 14.3039 41.1156 14.0956 40.6125C13.8873 40.1094 13.78 39.5701 13.78 39.0255C13.78 38.4808 13.8873 37.9415 14.0956 37.4384C14.3039 36.9353 14.6093 36.4783 14.9942 36.0934C15.3791 35.7085 15.8359 35.4033 16.3387 35.1954C16.8415 34.9874 17.3803 34.8807 17.9243 34.8814H141.068C141.612 34.8807 142.151 34.9874 142.654 35.1954C143.157 35.4033 143.614 35.7085 143.999 36.0934C144.383 36.4783 144.689 36.9353 144.897 37.4384C145.105 37.9415 145.213 38.4808 145.213 39.0255C145.213 39.5701 145.105 40.1094 144.897 40.6125C144.689 41.1156 144.383 41.5727 143.999 41.9575C143.614 42.3424 143.157 42.6476 142.654 42.8555C142.151 43.0635 141.612 43.1702 141.068 43.1696Z" fill="#CCCCCC"/>
<path d="M20.7772 305.473C20.4447 305.473 20.1151 305.41 19.8054 305.289C19.3045 305.097 18.874 304.756 18.5711 304.313C18.2682 303.869 18.1072 303.344 18.1094 302.807V274.981C18.1084 274.039 17.7342 273.136 17.069 272.47C16.4038 271.804 15.5018 271.429 14.5611 271.428H8.86954C6.51801 271.426 4.26354 270.489 2.60075 268.824C0.937959 267.16 0.00264175 264.903 0 262.548V206.603C0.00263705 204.249 0.937951 201.992 2.60074 200.327C4.26353 198.662 6.518 197.726 8.86954 197.723H209.626C211.977 197.726 214.232 198.662 215.894 200.327C217.557 201.992 218.493 204.249 218.495 206.603V262.548C218.493 264.903 217.557 267.16 215.894 268.824C214.232 270.489 211.977 271.426 209.626 271.428H54.6705C54.1786 271.429 53.6922 271.531 53.242 271.73C52.7918 271.928 52.3875 272.218 52.0547 272.58L22.7314 304.607C22.4837 304.879 22.1821 305.097 21.8456 305.246C21.5091 305.395 21.1452 305.473 20.7772 305.473ZM8.86954 198.906C6.83135 198.909 4.8773 199.72 3.43608 201.163C1.99486 202.606 1.18417 204.562 1.18187 206.603V262.548C1.18418 264.589 1.99486 266.545 3.43608 267.988C4.8773 269.431 6.83135 270.243 8.86954 270.245H14.561C15.8152 270.246 17.0175 270.746 17.9043 271.634C18.7911 272.521 19.2899 273.725 19.2913 274.981V302.807C19.2913 303.105 19.3813 303.396 19.5495 303.643C19.7178 303.889 19.9563 304.078 20.234 304.186C20.5117 304.295 20.8155 304.316 21.1057 304.249C21.3959 304.181 21.6588 304.027 21.8602 303.807L51.1835 271.781C51.6272 271.297 52.1661 270.911 52.7662 270.647C53.3664 270.383 54.0148 270.246 54.6705 270.245H209.626C211.664 270.243 213.618 269.431 215.059 267.988C216.5 266.545 217.311 264.589 217.313 262.548V206.603C217.311 204.562 216.5 202.606 215.059 201.163C213.618 199.72 211.664 198.909 209.626 198.906L8.86954 198.906Z" fill="#CCCCCC"/>
<path d="M317.24 202.906C316.872 202.906 316.508 202.829 316.172 202.68C315.835 202.53 315.534 202.313 315.286 202.04L285.963 170.014C285.63 169.651 285.226 169.361 284.775 169.163C284.325 168.965 283.839 168.862 283.347 168.862H128.392C126.04 168.859 123.786 167.922 122.123 166.258C120.46 164.593 119.525 162.336 119.522 159.982V104.036C119.525 101.682 120.46 99.425 122.123 97.7603C123.786 96.0955 126.04 95.1591 128.392 95.1565H329.148C331.499 95.1591 333.754 96.0955 335.417 97.7602C337.08 99.425 338.015 101.682 338.017 104.036V159.982C338.015 162.336 337.08 164.593 335.417 166.258C333.754 167.922 331.499 168.859 329.148 168.862H323.456C322.516 168.863 321.614 169.237 320.949 169.903C320.283 170.569 319.909 171.472 319.908 172.414V200.24C319.91 200.777 319.749 201.302 319.446 201.746C319.143 202.189 318.713 202.53 318.212 202.722C317.902 202.844 317.573 202.906 317.24 202.906ZM128.392 96.3397C126.354 96.342 124.4 97.1537 122.958 98.5965C121.517 100.039 120.706 101.996 120.704 104.036V159.982C120.706 162.022 121.517 163.979 122.958 165.421C124.4 166.864 126.354 167.676 128.392 167.678H283.347C284.003 167.679 284.651 167.816 285.251 168.08C285.851 168.344 286.39 168.731 286.834 169.214L316.157 201.24C316.359 201.46 316.622 201.614 316.912 201.682C317.202 201.75 317.506 201.728 317.783 201.62C318.061 201.512 318.3 201.322 318.468 201.076C318.636 200.83 318.726 200.538 318.726 200.24V172.414C318.728 171.159 319.226 169.955 320.113 169.067C321 168.179 322.202 167.68 323.456 167.678H329.148C331.186 167.676 333.14 166.864 334.581 165.421C336.023 163.979 336.833 162.022 336.836 159.982V104.036C336.833 101.996 336.023 100.039 334.581 98.5966C333.14 97.1537 331.186 96.342 329.148 96.3397L128.392 96.3397Z" fill="#3F3D56"/>
<path d="M21.756 222.92C26.0424 222.92 29.5172 219.441 29.5172 215.15C29.5172 210.859 26.0424 207.38 21.756 207.38C17.4696 207.38 13.9948 210.859 13.9948 215.15C13.9948 219.441 17.4696 222.92 21.756 222.92Z" fill="#CCCCCC"/>
<path d="M200.571 258.145H17.9243C17.3803 258.146 16.8415 258.039 16.3387 257.831C15.8359 257.623 15.3791 257.318 14.9942 256.933C14.6093 256.548 14.3039 256.091 14.0956 255.588C13.8873 255.085 13.78 254.546 13.78 254.001C13.78 253.456 13.8873 252.917 14.0956 252.414C14.3039 251.911 14.6093 251.454 14.9942 251.069C15.3791 250.684 15.8359 250.379 16.3387 250.171C16.8415 249.963 17.3803 249.856 17.9243 249.857H200.571C201.669 249.857 202.722 250.294 203.498 251.071C204.274 251.848 204.71 252.902 204.71 254.001C204.71 255.1 204.274 256.154 203.498 256.931C202.722 257.709 201.669 258.145 200.571 258.145Z" fill="#CCCCCC"/>
<path d="M141.068 240.533H17.9243C17.3803 240.533 16.8415 240.427 16.3387 240.219C15.8359 240.011 15.3791 239.706 14.9942 239.321C14.6093 238.936 14.3039 238.479 14.0956 237.976C13.8873 237.473 13.78 236.933 13.78 236.389C13.78 235.844 13.8873 235.305 14.0956 234.802C14.3039 234.299 14.6093 233.842 14.9942 233.457C15.3791 233.072 15.8359 232.767 16.3387 232.559C16.8415 232.351 17.3803 232.244 17.9243 232.245H141.068C141.612 232.244 142.151 232.351 142.654 232.559C143.157 232.767 143.614 233.072 143.999 233.457C144.383 233.842 144.689 234.299 144.897 234.802C145.105 235.305 145.213 235.844 145.213 236.389C145.213 236.933 145.105 237.473 144.897 237.976C144.689 238.479 144.383 238.936 143.999 239.321C143.614 239.706 143.157 240.011 142.654 240.219C142.151 240.427 141.612 240.533 141.068 240.533Z" fill="#CCCCCC"/>
<path d="M141.278 119.836C145.565 119.836 149.039 116.357 149.039 112.065C149.039 107.774 145.565 104.295 141.278 104.295C136.992 104.295 133.517 107.774 133.517 112.065C133.517 116.357 136.992 119.836 141.278 119.836Z" fill="#3F3D56"/>
<path d="M320.093 155.06H137.447C136.349 155.06 135.296 154.624 134.52 153.847C133.743 153.069 133.307 152.015 133.307 150.916C133.307 149.817 133.743 148.763 134.52 147.986C135.296 147.209 136.349 146.772 137.447 146.772H320.093C321.191 146.772 322.244 147.209 323.02 147.986C323.796 148.763 324.233 149.817 324.233 150.916C324.233 152.015 323.796 153.069 323.02 153.847C322.244 154.624 321.191 155.06 320.093 155.06Z" fill="#00AAFF"/>
<path d="M260.591 137.448H137.447C136.903 137.449 136.364 137.342 135.861 137.134C135.358 136.926 134.901 136.621 134.516 136.236C134.132 135.851 133.826 135.394 133.618 134.891C133.41 134.388 133.302 133.849 133.302 133.304C133.302 132.759 133.41 132.22 133.618 131.717C133.826 131.214 134.132 130.757 134.516 130.372C134.901 129.987 135.358 129.682 135.861 129.474C136.364 129.266 136.903 129.159 137.447 129.16H260.591C261.135 129.159 261.674 129.266 262.176 129.474C262.679 129.682 263.136 129.987 263.521 130.372C263.906 130.757 264.211 131.214 264.419 131.717C264.628 132.22 264.735 132.759 264.735 133.304C264.735 133.849 264.628 134.388 264.419 134.891C264.211 135.394 263.906 135.851 263.521 136.236C263.136 136.621 262.679 136.926 262.176 137.134C261.674 137.342 261.135 137.449 260.591 137.448Z" fill="#00AAFF"/>
<path d="M320.014 213.556C320.191 212.705 320.553 211.903 321.073 211.206C321.594 210.51 322.26 209.937 323.026 209.526C323.792 209.116 324.639 208.878 325.506 208.831C326.373 208.783 327.241 208.927 328.047 209.251L341.91 193.303L344.854 203.886L331.238 217.408C330.604 218.728 329.509 219.769 328.16 220.334C326.81 220.899 325.301 220.949 323.917 220.474C322.534 219.999 321.372 219.033 320.653 217.758C319.933 216.483 319.706 214.988 320.014 213.556Z" fill="#FFB8B8"/>
<path d="M396.099 138.718C404.115 138.718 410.613 132.212 410.613 124.187C410.613 116.162 404.115 109.656 396.099 109.656C388.083 109.656 381.585 116.162 381.585 124.187C381.585 132.212 388.083 138.718 396.099 138.718Z" fill="#FFB8B8"/>
<path d="M379.048 324.198L371.804 324.198L368.357 296.221L379.05 296.222L379.048 324.198Z" fill="#FFB8B8"/>
<path d="M380.896 331.229L357.536 331.228V330.932C357.536 329.737 357.771 328.553 358.228 327.449C358.685 326.344 359.355 325.341 360.199 324.496C361.043 323.65 362.046 322.98 363.149 322.522C364.252 322.065 365.434 321.83 366.628 321.83L380.896 321.83L380.896 331.229Z" fill="#2F2E41"/>
<path d="M400.913 331.889L393.668 331.889L392.665 304.581L400.914 303.913L400.913 331.889Z" fill="#FFB8B8"/>
<path d="M402.761 338.92L379.4 338.919V338.624C379.4 337.428 379.636 336.244 380.093 335.14C380.55 334.036 381.219 333.032 382.064 332.187C382.908 331.342 383.91 330.671 385.013 330.214C386.117 329.756 387.299 329.521 388.493 329.521L402.761 329.521L402.761 338.92Z" fill="#2F2E41"/>
<path d="M398.852 326.784L393.211 326.119C392.571 326.042 391.98 325.736 391.549 325.257C391.117 324.778 390.873 324.159 390.862 323.513L389.805 249.952C389.802 249.743 389.726 249.543 389.59 249.385C389.455 249.228 389.268 249.123 389.063 249.089C388.857 249.055 388.647 249.095 388.468 249.201C388.289 249.307 388.153 249.472 388.083 249.669L380.256 271.795L380.816 313.269C380.825 313.953 380.571 314.615 380.106 315.117C379.64 315.618 379 315.921 378.317 315.962L370.952 316.275C370.278 316.314 369.615 316.096 369.095 315.665C368.575 315.234 368.237 314.623 368.148 313.953L364.301 267.037L364.299 267.008L370.135 218.01L413.973 221.185L401.804 324.452C401.727 325.099 401.416 325.696 400.93 326.129C400.443 326.562 399.815 326.801 399.165 326.803C399.06 326.803 398.956 326.796 398.852 326.784Z" fill="#2F2E41"/>
<path d="M370.323 222.353C369.929 222.143 369.595 221.836 369.352 221.462C369.109 221.088 368.964 220.658 368.931 220.213C368.931 220.213 372.873 195.669 374.318 195.209L371.157 168.963C370.778 165.761 371.042 162.517 371.933 159.419C372.824 156.322 374.325 153.433 376.346 150.924C378.292 148.49 380.711 146.475 383.457 145.003C386.202 143.53 389.217 142.63 392.32 142.356C392.762 142.316 393.201 142.286 393.638 142.265C397.378 142.064 401.111 142.771 404.52 144.324C407.929 145.877 410.913 148.232 413.218 151.187C415.609 154.168 417.246 157.683 417.988 161.433C418.731 165.183 418.558 169.057 417.484 172.726L415.712 178.902V222.065C415.71 222.486 415.609 222.901 415.418 223.277C415.227 223.652 414.951 223.977 414.611 224.226C409.091 228.282 402.854 229.716 396.791 229.716C385.321 229.716 374.479 224.581 370.323 222.353Z" fill="#00AAFF"/>
<path d="M336.291 214.455L328.666 208.747C328.367 208.523 328.119 208.238 327.937 207.912C327.755 207.585 327.643 207.224 327.61 206.852C327.577 206.479 327.622 206.104 327.744 205.75C327.865 205.397 328.059 205.073 328.314 204.799L373.735 156.006C375.193 154.453 377.159 153.475 379.275 153.25C381.392 153.025 383.519 153.567 385.271 154.778C386.338 155.523 387.228 156.494 387.878 157.622C388.527 158.751 388.92 160.009 389.029 161.307C389.138 162.605 388.959 163.911 388.506 165.132C388.053 166.353 387.337 167.459 386.409 168.371L339.746 214.223C339.336 214.63 338.804 214.891 338.232 214.967C337.66 215.042 337.079 214.928 336.577 214.642C336.478 214.586 336.382 214.523 336.291 214.455Z" fill="#00AAFF"/>
<path d="M394.645 207.994C394.978 207.191 395.483 206.471 396.125 205.884C396.766 205.298 397.528 204.859 398.357 204.599C399.186 204.339 400.062 204.264 400.923 204.38C401.784 204.496 402.61 204.799 403.341 205.269L419.938 192.198L420.854 203.145L404.952 213.88C404.083 215.057 402.812 215.875 401.381 216.177C399.95 216.479 398.458 216.246 397.188 215.52C395.917 214.795 394.957 213.628 394.488 212.241C394.019 210.854 394.075 209.343 394.645 207.994Z" fill="#FFB8B8"/>
<path d="M409.501 213.097C409.061 212.96 408.665 212.711 408.352 212.374C408.039 212.037 407.819 211.623 407.714 211.175L406.038 204.125C405.915 203.625 405.942 203.099 406.115 202.614C406.289 202.128 406.601 201.705 407.013 201.396L418.293 189.183L401.701 163.568C400.445 162.019 399.737 160.098 399.688 158.105C399.638 156.111 400.25 154.157 401.428 152.548C402.366 151.266 403.627 150.256 405.081 149.619C406.536 148.982 408.133 148.741 409.71 148.921C411.288 149.101 412.789 149.695 414.064 150.643C415.338 151.591 416.339 152.859 416.966 154.32L432.392 184.38C433.926 187.367 434.308 190.814 433.467 194.065C432.625 197.315 430.619 200.143 427.829 202.008L412.065 212.55C411.582 212.983 410.958 213.222 410.31 213.223C410.035 213.223 409.762 213.18 409.501 213.097Z" fill="#00AAFF"/>
<path d="M406.854 137.177C406.512 137.383 406.127 137.507 405.729 137.539C405.332 137.572 404.932 137.513 404.561 137.366C404.19 137.22 403.858 136.989 403.59 136.693C403.322 136.398 403.126 136.044 403.017 135.66L403.008 135.624C402.712 134.415 402.945 133.149 403.022 131.907C403.098 130.664 402.969 129.301 402.12 128.392C400.535 126.698 397.738 127.616 395.459 127.198C394.123 126.907 392.939 126.138 392.129 125.037C391.318 123.935 390.936 122.575 391.055 121.212C391.086 120.954 391.135 120.695 391.191 120.437C391.33 119.781 391.315 119.103 391.148 118.454C390.981 117.806 390.666 117.205 390.228 116.699C389.79 116.193 389.241 115.795 388.623 115.537C388.006 115.279 387.337 115.168 386.67 115.213C384.369 115.357 381.889 116.068 379.975 114.372C379.274 113.702 378.784 112.841 378.569 111.895C378.353 110.949 378.42 109.96 378.762 109.052C379.832 105.904 382.897 104.243 385.933 103.322C389.688 102.214 393.643 101.958 397.509 102.572C401.376 103.186 405.057 104.655 408.286 106.871C410.214 108.217 412.017 109.91 412.847 112.111C413.677 114.312 413.297 117.096 411.459 118.562C412.898 120.071 413.916 121.933 414.41 123.959C414.904 125.986 414.858 128.108 414.275 130.111C413.379 133.057 409.043 135.901 406.854 137.177Z" fill="#2F2E41"/>
<path d="M498 338.768C498 338.925 497.937 339.075 497.826 339.186C497.716 339.297 497.566 339.359 497.409 339.36H272.262C272.105 339.36 271.955 339.297 271.844 339.186C271.734 339.076 271.671 338.925 271.671 338.768C271.671 338.611 271.734 338.461 271.844 338.35C271.955 338.239 272.105 338.177 272.262 338.177H497.409C497.566 338.177 497.716 338.239 497.826 338.35C497.937 338.461 498 338.611 498 338.768Z" fill="#3F3D56"/>
</g>
<defs>
<clipPath id="clip0_7_2600">
<rect width="498" height="339" fill="white" transform="translate(0 0.359863)"/>
</clipPath>
</defs>
</svg>
