<svg width="22" height="22" viewBox="0 0 22 22" fill="none" xmlns="http://www.w3.org/2000/svg">
<g id="ri:linkedin-fill">
<path id="Vector" d="M6.36167 4.58333C6.36142 5.06956 6.16804 5.53578 5.82405 5.87943C5.48006 6.22307 5.01365 6.41599 4.52742 6.41575C4.04119 6.41551 3.57497 6.22212 3.23132 5.87813C2.88768 5.53414 2.69476 5.06773 2.695 4.5815C2.69524 4.09527 2.88863 3.62905 3.23262 3.28541C3.57661 2.94176 4.04302 2.74884 4.52925 2.74908C5.01548 2.74933 5.4817 2.94272 5.82534 3.2867C6.16899 3.63069 6.36191 4.0971 6.36167 4.58333ZM6.41667 7.77333H2.75V19.25H6.41667V7.77333ZM12.21 7.77333H8.56167V19.25H12.1733V13.2275C12.1733 9.8725 16.5458 9.56083 16.5458 13.2275V19.25H20.1667V11.9808C20.1667 6.325 13.695 6.53583 12.1733 9.31333L12.21 7.77333Z" fill="#00AAFF"/>
</g>
</svg>
