<svg width="22" height="22" viewBox="0 0 22 22" fill="none" xmlns="http://www.w3.org/2000/svg">
<g id="mdi:twitter">
<path id="Vector" d="M20.5883 5.49999C19.8825 5.82082 19.1217 6.03166 18.3333 6.13249C19.14 5.64666 19.7633 4.87666 20.0567 3.95082C19.2958 4.40916 18.4525 4.72999 17.5633 4.91332C16.8392 4.12499 15.8217 3.66666 14.6667 3.66666C12.5125 3.66666 10.7525 5.42666 10.7525 7.59916C10.7525 7.91082 10.7892 8.21332 10.8533 8.49749C7.59 8.33249 4.68417 6.76499 2.75 4.39082C2.41083 4.96832 2.21833 5.64666 2.21833 6.36166C2.21833 7.72749 2.90583 8.93749 3.96917 9.62499C3.31833 9.62499 2.71333 9.44166 2.18167 9.16666V9.19416C2.18167 11.1008 3.53833 12.6958 5.335 13.0533C4.75817 13.2112 4.15259 13.2331 3.56583 13.1175C3.81481 13.8989 4.30241 14.5827 4.9601 15.0727C5.61779 15.5627 6.41249 15.8342 7.2325 15.8492C5.84249 16.9496 4.1195 17.5444 2.34667 17.5358C2.035 17.5358 1.72333 17.5175 1.41167 17.4808C3.15333 18.5992 5.225 19.25 7.44333 19.25C14.6667 19.25 18.6358 13.255 18.6358 8.05749C18.6358 7.88332 18.6358 7.71832 18.6267 7.54416C19.3967 6.99416 20.0567 6.29749 20.5883 5.49999Z" fill="#00AAFF"/>
</g>
</svg>
